<?xml version="1.0" encoding="UTF-8"?>
<svg id="Layer_1" xmlns="http://www.w3.org/2000/svg" viewBox="0 0 20 18">
  <defs>
    <style>
      .cls-1 {
        fill: #eb5444;
      }
    </style>
  </defs>
  <polygon class="cls-1" points="18 4.01 18 2.01 17 2.01 17 .01 15 .01 13 .01 13 2.01 12 2.01 12 4.01 12 4.42 10.6 4.42 10.6 6.01 10 6.01 9.47 6.01 9.47 4.42 8 4.42 8 4.01 8 2.01 7 2.01 7 .01 5 .01 3 .01 3 2.01 2 2.01 2 4.01 0 4.01 0 6.01 0 8.01 2 8.01 2 10.01 4 10.01 4 12.01 6 12.01 6 14.01 8 14.01 8 16.01 9.08 16.01 9.08 18.01 11.08 18.01 11.08 16.01 12 16.01 12 14.01 14 14.01 14 12.01 16 12.01 16 10.01 18 10.01 18 8.01 20 8.01 20 6.01 20 4.01 18 4.01"/>
</svg>